<?xml version="1.0" encoding="UTF-8" standalone="no"?>
<!-- Created with Inkscape (http://www.inkscape.org/) -->

<svg
   width="194.58571mm"
   height="194.93584mm"
   viewBox="0 0 194.58571 194.93584"
   version="1.1"
   id="svg1"
   xml:space="preserve"
   xmlns="http://www.w3.org/2000/svg"
   xmlns:svg="http://www.w3.org/2000/svg"><defs
     id="defs1"><style
       id="style1">.cls-1{fill:#dabc45;}.cls-2{fill:#7bb677;}</style></defs><g
     style="fill:none"
     id="g5"
     transform="matrix(8.8194444,0,0,8.8194444,-8.8194445,-8.8194475)"><path
       d="m 9.4,7.53333 c -0.2,-0.26666 -0.6,-0.26666 -0.8,0 L 6.225,10.7 c -0.13333,0.1778 -0.13333,0.4222 0,0.6 L 8.6,14.4667 c 0.2,0.2666 0.6,0.2666 0.8,0 L 11.775,11.3 c 0.1333,-0.1778 0.1333,-0.4222 0,-0.6 z"
       fill="#0f0f0f"
       id="path1"
       style="fill:#f38ba8;fill-opacity:1;stroke:#11111b;stroke-width:0.45;stroke-dasharray:none;stroke-opacity:1" /><path
       d="M 4.09245,5.63868 C 4.03647,5.5547 4.03647,5.4453 4.09245,5.36133 L 4.79199,4.31202 c 0.09895,-0.14843 0.31707,-0.14843 0.41602,0 l 0.69954,1.0493 c 0.05598,0.08398 0.05598,0.19338 0,0.27735 L 5.20801,6.68798 c -0.09895,0.14843 -0.31707,0.14843 -0.41602,0 z"
       fill="#0f0f0f"
       id="path2"
       style="fill:#f38ba8;fill-opacity:1;stroke:#11111b;stroke-width:0.45;stroke-dasharray:none;stroke-opacity:1" /><path
       d="m 13.208,15.312 c -0.0989,-0.1484 -0.3171,-0.1484 -0.416,0 l -0.6996,1.0493 c -0.0559,0.084 -0.0559,0.1934 0,0.2774 l 0.6996,1.0493 c 0.0989,0.1484 0.3171,0.1484 0.416,0 l 0.6995,-1.0493 c 0.056,-0.084 0.056,-0.1934 0,-0.2774 z"
       fill="#0f0f0f"
       id="path3"
       style="fill:#f38ba8;fill-opacity:1;stroke:#11111b;stroke-width:0.45;stroke-dasharray:none;stroke-opacity:1" /><path
       fill-rule="evenodd"
       clip-rule="evenodd"
       d="M 1,4 C 1,2.34315 2.34315,1 4,1 h 10 c 1.1323,0 2.1181,0.62732 2.6288,1.55337 l 4.2102,1.12811 c 1.6004,0.42883 2.5501,2.07384 2.1213,3.67424 L 19.3368,20.8787 C 18.908,22.4791 17.263,23.4288 15.6626,23 L 8.19849,21 H 4 C 2.34315,21 1,19.6569 1,18 Z M 17,18 V 4.72339 l 3.3213,0.88995 c 0.5335,0.14294 0.8501,0.69127 0.7071,1.22474 L 17.405,20.361 c -0.143,0.5335 -0.6913,0.8501 -1.2248,0.7071 L 15.1198,20.784 C 16.222,20.3403 17,19.261 17,18 Z M 4,3 C 3.44772,3 3,3.44772 3,4 v 14 c 0,0.5523 0.44772,1 1,1 h 10 c 0.5523,0 1,-0.4477 1,-1 V 4 C 15,3.44772 14.5523,3 14,3 Z"
       fill="#0f0f0f"
       id="path4"
       style="fill:#11111b;fill-opacity:1" /></g><path
     style="fill:#e6e9ef;fill-opacity:1;stroke:none;stroke-width:0.374176;stroke-opacity:1"
     d="m 22.799844,158.19838 c -1.708869,-0.35638 -3.33004,-1.75386 -3.948205,-3.46797 l -1.262845,-3.45173 0.06683,-62.800827 c 0.0606,-56.940904 -0.234899,-63.428943 0.282771,-64.668209 0.809329,-1.937469 2.495508,-4.791519 4.834768,-5.434324 l 1.920497,-0.652952 45.798462,-0.132292 45.533888,0.115755 2.28429,0.57027 c 2.35373,0.587603 3.76017,2.771886 4.5695,4.709356 0.14519,0.347578 0.47551,1.241086 0.60002,3.517024 0.31939,5.838563 0.32843,21.101187 0.11809,62.001127 -0.31864,61.958952 0.23911,63.446262 -0.88081,65.195592 -1.13104,1.76671 -2.82276,3.63369 -4.63831,4.46654 -1.42574,0.65402 -3.68364,1.19415 -47.571338,0.76095 l -45.16257,-0.19755 z m 84.050176,-10.06683 c 0.97229,-0.3731 7.42463,-10.25685 7.42463,-11.37311 0,-1.24265 -6.77941,-11.35075 -7.7314,-11.52753 -1.71,-0.31752 -2.40403,0.33569 -5.80526,5.46374 -1.884324,2.84099 -3.42604,5.52422 -3.42604,5.96273 0,0.774 5.28815,9.17522 6.84202,10.86981 0.78384,0.85484 1.57888,1.03306 2.69605,0.60436 z M 73.240251,119.88406 C 74.09598,119.18005 95.087407,91.191129 95.740656,89.883143 96.80423,87.753575 96.311719,86.932626 84.584743,71.287842 74.280162,57.540656 73.280071,56.326182 71.931477,55.922134 c -1.132687,-0.339363 -1.778609,-0.335008 -2.851955,0.01923 -1.229098,0.405638 -2.659909,2.155301 -12.524697,15.315766 -6.125393,8.171794 -11.2561,15.332032 -11.401571,15.911637 -0.145473,0.579604 -0.165631,1.495258 -0.0448,2.034788 0.300662,1.342501 22.224527,30.418695 23.391844,31.023085 1.117346,0.5785 3.861443,0.38017 4.739955,-0.34258 z M 36.276333,51.106913 c 0.904888,-0.48428 7.528261,-10.545985 7.528261,-11.436337 0,-1.098896 -6.749159,-11.062062 -7.751794,-11.443263 -0.520642,-0.197948 -1.187252,-0.175014 -1.697668,0.05841 -1.196448,0.547156 -7.863884,10.770407 -7.623585,11.689321 0.325274,1.243843 6.746579,10.675726 7.531524,11.062615 0.975389,0.480759 1.228121,0.48945 2.013262,0.06925 z"
     id="path5" /><path
     style="fill:#e6e9ef;fill-opacity:1;stroke:none;stroke-width:0.374176;stroke-opacity:1"
     d="m 131.54918,176.20486 c -1.85218,-0.50658 -4.02787,-1.09783 -4.83487,-1.31389 l -1.79799,-0.45898 2.12431,-1.18856 c 6.43705,-3.60158 11.35313,-9.29597 13.4003,-16.53 l 0.40503,-3.01231 0.41605,-60.214387 c 0.38511,-55.735039 -0.69089,-60.646076 -0.0853,-60.459889 0.35361,0.108709 7.32266,1.976128 14.31978,3.843777 6.99712,1.867651 13.8941,3.680335 14.98305,3.987763 3.72175,1.050718 6.4371,4.66196 6.45377,8.34658 0.006,1.233646 -5.61356,21.193662 -16.39117,61.692496 -8.83848,33.21218 -16.16628,60.67268 -16.39442,61.23991 -0.65992,1.64078 -3.20547,4.10504 -5.09589,4.74917 -2.27806,0.77621 -3.46733,0.42201 -7.50269,-0.68168 z"
     id="path6" /></svg>
