<?xml version="1.0" encoding="UTF-8" standalone="no"?>
<!-- Created with Inkscape (http://www.inkscape.org/) -->

<svg
   width="190.5mm"
   height="103.79807mm"
   viewBox="0 0 190.5 103.79807"
   version="1.1"
   id="svg1"
   xml:space="preserve"
   xmlns="http://www.w3.org/2000/svg"
   xmlns:svg="http://www.w3.org/2000/svg"><defs
     id="defs1"><style
       id="style1">.cls-1{fill:#dabc45;}.cls-2{fill:#7bb677;}</style></defs><g
     style="fill:#11111b;fill-opacity:1"
     id="g8"
     transform="matrix(0.40707041,0,0,0.40707041,-1.8530274e-7,-43.350967)"><g
       id="g14"
       style="fill:#11111b;fill-opacity:1"><path
         d="M 460.478,106.495 H 7.5 c -4.143,0 -7.5,3.358 -7.5,7.5 v 239.988 c 0,4.142 3.357,7.5 7.5,7.5 h 452.978 c 4.143,0 7.5,-3.358 7.5,-7.5 V 113.995 c 0,-4.142 -3.358,-7.5 -7.5,-7.5 z M 48.299,243.489 v 62.21 c 0,2.761 2.238,5 5,5 h 3.611 v 35.784 H 32.495 V 243.489 Z m 43.027,0 V 346.483 H 66.91 v -35.784 h 3.612 c 2.762,0 5,-2.239 5,-5 v -62.21 z m 60.218,0 v 62.21 c 0,2.761 2.238,5 5,5 h 3.612 v 35.784 h -24.415 v -35.784 h 3.611 c 2.762,0 5,-2.239 5,-5 v -62.21 z m 43.027,0 v 102.994 h -24.415 v -35.784 h 3.612 c 2.762,0 5,-2.239 5,-5 v -62.21 z m 94.634,0 v 62.21 c 0,2.761 2.238,5 5,5 h 3.612 v 35.784 h -24.416 v -35.784 h 3.612 c 2.762,0 5,-2.239 5,-5 v -62.21 z m 43.027,0 v 102.994 h -24.415 v -35.784 h 3.611 c 2.762,0 5,-2.239 5,-5 v -62.21 z m 68.831,0 v 102.994 h -24.415 v -35.784 h 3.612 c 2.762,0 5,-2.239 5,-5 v -62.21 z m 34.415,102.994 H 411.063 V 243.489 h 24.415 z M 375.26,300.699 h -7.225 v -57.21 h 7.225 z m -12.225,10 h 3.612 v 35.784 H 342.232 V 243.489 h 15.803 v 62.21 c 0,2.761 2.238,5 5,5 z m -56.606,-10 h -7.224 v -57.21 h 7.224 z m -34.415,0 h -7.224 v -57.21 h 7.224 z m -12.224,10 h 3.611 v 35.784 H 238.986 V 243.489 h 15.804 v 62.21 c 0,2.761 2.238,5 5,5 z m -30.804,35.784 H 204.571 V 243.489 h 24.415 z m -60.217,-45.784 h -7.225 v -57.21 h 7.225 z m -34.416,0 h -7.224 v -57.21 h 7.224 z m -12.224,10 h 3.612 v 35.784 H 101.326 V 243.489 h 15.803 v 62.21 c 0,2.761 2.238,5 5,5 z m -56.607,-10 h -7.224 v -57.21 h 7.224 z m 387.456,45.784 h -7.5 V 238.489 c 0,-2.761 -2.238,-5 -5,-5 H 27.495 c -2.762,0 -5,2.239 -5,5 V 346.483 H 15 V 121.495 h 437.978 z"
         id="path1"
         style="fill:#11111b;fill-opacity:1" /><path
         d="m 27.5,224.996 h 412.978 c 2.762,0 5,-2.239 5,-5 v -86.001 c 0,-2.761 -2.238,-5 -5,-5 H 27.5 c -2.762,0 -5,2.239 -5,5 v 86.001 c 0,2.761 2.238,5 5,5 z m 5,-86.001 h 402.978 v 76.001 H 32.5 Z"
         id="path2"
         style="fill:#11111b;fill-opacity:1" /><path
         d="m 358.116,148.995 h -93.698 c -2.762,0 -5,2.239 -5,5 v 46.001 c 0,2.761 2.238,5 5,5 h 93.698 c 2.762,0 5,-2.239 5,-5 v -46.001 c 0,-2.762 -2.238,-5 -5,-5 z m -5,46.001 h -83.698 v -36.001 h 83.698 z"
         id="path3"
         style="fill:#11111b;fill-opacity:1" /><path
         d="m 56.618,161.477 h -1 v -7.482 c 0,-2.761 -2.238,-5 -5,-5 -2.762,0 -5,2.239 -5,5 v 7.482 h -1 c -2.762,0 -5,2.239 -5,5 0,2.761 2.238,5 5,5 h 1 v 28.519 c 0,2.761 2.238,5 5,5 2.762,0 5,-2.239 5,-5 v -28.519 h 1 c 2.762,0 5,-2.239 5,-5 0,-2.761 -2.238,-5 -5,-5 z"
         id="path4"
         style="fill:#11111b;fill-opacity:1" /><path
         d="m 119.285,166.255 h -1 v -12.26 c 0,-2.761 -2.238,-5 -5,-5 -2.762,0 -5,2.239 -5,5 v 12.26 h -1 c -2.762,0 -5,2.239 -5,5 0,2.761 2.238,5 5,5 h 1 v 23.741 c 0,2.761 2.238,5 5,5 2.762,0 5,-2.239 5,-5 v -23.741 h 1 c 2.762,0 5,-2.239 5,-5 0,-2.761 -2.238,-5 -5,-5 z"
         id="path5"
         style="fill:#11111b;fill-opacity:1" /><path
         d="m 181.951,171.033 h -1 v -17.038 c 0,-2.761 -2.238,-5 -5,-5 -2.762,0 -5,2.239 -5,5 v 17.038 h -1 c -2.762,0 -5,2.239 -5,5 0,2.761 2.238,5 5,5 h 1 v 18.963 c 0,2.761 2.238,5 5,5 2.762,0 5,-2.239 5,-5 v -18.963 h 1 c 2.762,0 5,-2.239 5,-5 0,-2.761 -2.238,-5 -5,-5 z"
         id="path6"
         style="fill:#11111b;fill-opacity:1" /><path
         d="m 244.618,185.366 h -1 v -31.371 c 0,-2.761 -2.238,-5 -5,-5 -2.762,0 -5,2.239 -5,5 v 31.371 h -1 c -2.762,0 -5,2.239 -5,5 0,2.761 2.238,5 5,5 h 1 v 4.63 c 0,2.761 2.238,5 5,5 2.762,0 5,-2.239 5,-5 v -4.63 h 1 c 2.762,0 5,-2.239 5,-5 0,-2.761 -2.238,-5 -5,-5 z"
         id="path7"
         style="fill:#11111b;fill-opacity:1" /><path
         d="m 87.951,175.81 h -1 v -21.816 c 0,-2.761 -2.238,-5 -5,-5 -2.762,0 -5,2.239 -5,5 v 21.816 h -1 c -2.762,0 -5,2.239 -5,5 0,2.761 2.238,5 5,5 h 1 v 14.186 c 0,2.761 2.238,5 5,5 2.762,0 5,-2.239 5,-5 V 185.81 h 1 c 2.762,0 5,-2.239 5,-5 0,-2.761 -2.238,-5 -5,-5 z"
         id="path8"
         style="fill:#11111b;fill-opacity:1" /><path
         d="m 150.618,180.588 h -1 v -26.594 c 0,-2.761 -2.238,-5 -5,-5 -2.762,0 -5,2.239 -5,5 v 26.594 h -1 c -2.762,0 -5,2.239 -5,5 0,2.761 2.238,5 5,5 h 1 v 9.408 c 0,2.761 2.238,5 5,5 2.762,0 5,-2.239 5,-5 v -9.408 h 1 c 2.762,0 5,-2.239 5,-5 0,-2.761 -2.238,-5 -5,-5 z"
         id="path9"
         style="fill:#11111b;fill-opacity:1" /><path
         d="m 213.285,156.699 h -1 v -2.705 c 0,-2.761 -2.238,-5 -5,-5 -2.762,0 -5,2.239 -5,5 v 2.705 h -1 c -2.762,0 -5,2.239 -5,5 0,2.761 2.238,5 5,5 h 1 v 33.297 c 0,2.761 2.238,5 5,5 2.762,0 5,-2.239 5,-5 v -33.297 h 1 c 2.762,0 5,-2.239 5,-5 0,-2.761 -2.238,-5 -5,-5 z"
         id="path10"
         style="fill:#11111b;fill-opacity:1" /><path
         d="m 411.812,148.995 c -7.536,0 -13.667,6.131 -13.667,13.667 0,7.536 6.131,13.667 13.667,13.667 7.535,0 13.666,-6.131 13.666,-13.667 0,-7.537 -6.131,-13.667 -13.666,-13.667 z m 0,17.333 c -2.022,0 -3.667,-1.645 -3.667,-3.667 0,-2.021 1.645,-3.667 3.667,-3.667 2.021,0 3.666,1.645 3.666,3.667 0,2.022 -1.645,3.667 -3.666,3.667 z"
         id="path11"
         style="fill:#11111b;fill-opacity:1" /><path
         d="m 382.944,148.995 c -7.535,0 -13.666,6.131 -13.666,13.667 0,7.536 6.131,13.667 13.666,13.667 7.536,0 13.667,-6.131 13.667,-13.667 0,-7.537 -6.131,-13.667 -13.667,-13.667 z m 0,17.333 c -2.021,0 -3.666,-1.645 -3.666,-3.667 0,-2.021 1.645,-3.667 3.666,-3.667 2.022,0 3.667,1.645 3.667,3.667 0,2.022 -1.644,3.667 -3.667,3.667 z"
         id="path12"
         style="fill:#11111b;fill-opacity:1" /><path
         d="m 411.812,177.662 c -7.536,0 -13.667,6.131 -13.667,13.667 0,7.536 6.131,13.667 13.667,13.667 7.535,0 13.666,-6.131 13.666,-13.667 0,-7.536 -6.131,-13.667 -13.666,-13.667 z m 0,17.334 c -2.022,0 -3.667,-1.645 -3.667,-3.667 0,-2.022 1.645,-3.667 3.667,-3.667 2.021,0 3.666,1.645 3.666,3.667 0,2.022 -1.645,3.667 -3.666,3.667 z"
         id="path13"
         style="fill:#11111b;fill-opacity:1" /><path
         d="m 382.944,177.662 c -7.535,0 -13.666,6.131 -13.666,13.667 0,7.536 6.131,13.667 13.666,13.667 7.536,0 13.667,-6.131 13.667,-13.667 0,-7.536 -6.131,-13.667 -13.667,-13.667 z m 0,17.334 c -2.021,0 -3.666,-1.645 -3.666,-3.667 0,-2.022 1.645,-3.667 3.666,-3.667 2.022,0 3.667,1.645 3.667,3.667 0,2.022 -1.644,3.667 -3.667,3.667 z"
         id="path14"
         style="fill:#11111b;fill-opacity:1" /></g></g><path
     style="fill:#e6e9ef;fill-opacity:1;stroke:none;stroke-width:1.87089;stroke-dasharray:none;stroke-opacity:1"
     d="M 13.350723,76.708271 V 55.847883 h 3.086964 3.086963 v 12.728038 c 0,13.682938 -0.005,13.607769 0.957307,14.281825 0.28067,0.196588 0.819965,0.305083 1.516473,0.305083 h 1.080905 v 7.202913 7.202913 h -4.864307 -4.864305 z"
     id="path15" /><path
     style="fill:#e6e9ef;fill-opacity:1;stroke:none;stroke-width:1.87089;stroke-dasharray:none;stroke-opacity:1"
     d="m 27.382373,90.365742 v -7.202913 h 0.947742 c 1.048219,0 1.601968,-0.216649 2.08829,-0.817023 0.299271,-0.369459 0.323554,-1.366832 0.327404,-13.448488 l 0.0042,-13.049435 h 3.180506 3.180508 v 20.860388 20.860384 h -4.864298 -4.864306 z"
     id="path16" /><path
     style="fill:#e6e9ef;fill-opacity:1;stroke:none;stroke-width:1.87089;stroke-dasharray:none;stroke-opacity:1"
     d="M 41.414023,76.708271 V 55.847883 h 3.08325 3.083248 l 0.05049,13.111615 0.05049,13.111615 0.610989,0.545856 c 0.530791,0.474208 0.757949,0.54586 1.730571,0.54586 h 1.119582 v 7.202913 7.202913 H 46.278336 41.41403 Z"
     id="path17" /><path
     style="fill:#e6e9ef;fill-opacity:1;stroke:none;stroke-width:1.87089;stroke-dasharray:none;stroke-opacity:1"
     d="m 55.258584,90.365742 v -7.202913 h 1.141243 c 1.04843,0 1.192969,-0.05173 1.777341,-0.636101 l 0.636101,-0.636103 V 68.869254 55.847883 h 1.399452 1.39945 l 0.05049,13.111615 0.05049,13.111615 0.610989,0.545856 c 0.530792,0.474208 0.75795,0.54586 1.730571,0.54586 h 1.119579 v 7.202913 7.202913 h -4.957849 -4.95785 z"
     id="path18" /><path
     style="fill:#e6e9ef;fill-opacity:1;stroke:none;stroke-width:1.87089;stroke-dasharray:none;stroke-opacity:1"
     d="m 69.290234,90.365742 v -7.202913 h 1.119582 c 0.972621,0 1.199779,-0.07165 1.730571,-0.54586 l 0.610989,-0.545856 0.05049,-13.111615 0.05048,-13.111615 h 3.176794 3.176794 v 20.860388 20.860384 h -4.95785 -4.95785 z"
     id="path19" /><path
     style="fill:#e6e9ef;fill-opacity:1;stroke:none;stroke-width:1.87089;stroke-dasharray:none;stroke-opacity:1"
     d="M 83.321885,76.708271 V 55.847883 h 4.864306 4.864304 v 20.860388 20.860384 h -4.864304 -4.864306 z"
     id="path20" /><path
     style="fill:#e6e9ef;fill-opacity:1;stroke:none;stroke-width:1.87089;stroke-dasharray:none;stroke-opacity:1"
     d="M 97.353535,76.708271 V 55.847883 h 3.180505 3.18051 l 0.004,13.049435 c 0.004,12.081656 0.0281,13.079029 0.32741,13.448488 0.48632,0.600374 1.04007,0.817023 2.08829,0.817023 h 0.94774 v 7.202913 7.202913 h -4.8643 -4.86431 z"
     id="path21" /><path
     style="fill:#e6e9ef;fill-opacity:1;stroke:none;stroke-width:1.87089;stroke-dasharray:none;stroke-opacity:1"
     d="m 111.38519,90.365742 v -7.202913 l 0.98221,-0.0028 c 1.24189,-0.0035 1.83144,-0.298262 2.24477,-1.122378 0.30186,-0.601837 0.32714,-1.638324 0.32741,-13.421008 l 2.6e-4,-12.768802 h 1.30963 1.30961 l 0.001,12.581712 c 8e-4,8.253955 0.069,12.826386 0.19857,13.293029 0.26395,0.950503 1.06848,1.438577 2.37286,1.439505 l 0.98221,7.94e-4 v 7.202914 7.202913 h -4.8643 -4.86431 z"
     id="path22" /><path
     style="fill:#e6e9ef;fill-opacity:1;stroke:none;stroke-width:1.87089;stroke-dasharray:none;stroke-opacity:1"
     d="m 125.41684,90.365742 v -7.202913 l 0.98221,-7.94e-4 c 1.30438,-0.0011 2.10891,-0.489003 2.37286,-1.439505 0.12958,-0.466643 0.19788,-5.039075 0.19857,-13.293029 l 0.001,-12.581713 h 3.08697 3.08696 V 76.708175 97.56856 h -4.86431 -4.8643 z"
     id="path23" /><path
     style="fill:#e6e9ef;fill-opacity:1;stroke:none;stroke-width:1.87089;stroke-dasharray:none;stroke-opacity:1"
     d="M 139.44849,76.708271 V 55.847883 h 3.08696 3.08696 v 12.824865 c 0,11.012175 0.0395,12.901276 0.27957,13.365482 0.43587,0.842897 0.9855,1.124599 2.19421,1.124599 h 1.08091 v 7.202913 7.202913 h -4.86431 -4.8643 z"
     id="path24" /><path
     style="fill:#e6e9ef;fill-opacity:1;stroke:none;stroke-width:1.87089;stroke-dasharray:none;stroke-opacity:1"
     d="m 153.48013,90.365742 v -7.202913 h 1.0477 c 0.94205,0 1.11184,-0.06415 1.6838,-0.636101 l 0.6361,-0.636103 V 68.869254 55.847883 h 3.18051 3.18051 v 20.860388 20.860384 h -4.86431 -4.86431 z"
     id="path25" /><path
     style="fill:#e6e9ef;fill-opacity:1;stroke:none;stroke-width:2.64583;stroke-dasharray:none;stroke-opacity:1"
     d="M 167.48125,76.769863 V 56.000072 h 4.89479 4.89479 v 20.769791 20.769791 h -4.89479 -4.89479 z"
     id="path32" /><path
     style="fill:#11111b;fill-opacity:1;stroke:#11111b;stroke-width:1.32292;stroke-dasharray:none;stroke-opacity:1"
     d="M 23.812503,67.377155 V 55.801634 h 1.389063 1.389062 v 11.575521 11.575521 h -1.389062 -1.389063 z"
     id="path33" /><path
     style="fill:#11111b;fill-opacity:1;stroke:#11111b;stroke-width:1.32292;stroke-dasharray:none;stroke-opacity:1"
     d="M 51.858336,67.377155 V 55.801634 h 1.389063 1.389062 v 11.575521 11.575521 h -1.389062 -1.389063 z"
     id="path34" /><path
     style="fill:#11111b;fill-opacity:1;stroke:#11111b;stroke-width:1.32292;stroke-dasharray:none;stroke-opacity:1"
     d="M 65.881253,67.377155 V 55.801634 h 1.389062 1.389063 v 11.575521 11.575521 h -1.389063 -1.389062 z"
     id="path35" /><path
     style="fill:#11111b;fill-opacity:1;stroke:#11111b;stroke-width:0.935442;stroke-dasharray:none;stroke-opacity:1"
     d="m 107.8305,67.40061 v -11.5995 h 1.44994 1.44994 v 11.5995 11.599497 h -1.44994 -1.44994 z"
     id="path36" /><path
     style="fill:#11111b;fill-opacity:1;stroke:#11111b;stroke-width:0.935442;stroke-dasharray:none;stroke-opacity:1"
     d="m 121.86215,67.40061 v -11.5995 h 1.40317 1.40316 v 11.5995 11.599497 h -1.40316 -1.40317 z"
     id="path37" /><path
     style="fill:#11111b;fill-opacity:1;stroke:#11111b;stroke-width:2.64583;stroke-dasharray:none;stroke-opacity:1"
     d="M 150.01875,67.509447 V 56.000072 h 1.32292 1.32291 v 11.509375 11.509374 h -1.32291 -1.32292 z"
     id="path38" /><path
     style="fill:#eba0ac;fill-opacity:1;stroke:none;stroke-width:0.1184;stroke-dasharray:none;stroke-opacity:1"
     d="m 80.047834,49.966286 v -1.72473 h 11.33535 11.335346 v 1.72473 1.76606 l -11.335346,-0.0413 h -11.33535 z"
     id="path39" /><path
     style="fill:#eba0ac;fill-opacity:1;stroke:none;stroke-width:0.467722;stroke-dasharray:none;stroke-opacity:1"
     d="m 40.431808,49.954591 v -1.707184 h 19.854785 19.854786 v 1.707184 l 0.01241,1.740257 -19.86719,-0.03307 H 40.431813 Z"
     id="path40" /><path
     style="fill:#eba0ac;fill-opacity:1;stroke:none;stroke-width:1.32292;stroke-dasharray:none;stroke-opacity:1"
     d="M 6.2177119,51.89903 V 6.1922601 H 95.250002 184.28229 V 51.89903 97.6058 h -1.45407 -1.45407 l -0.0342,-22.347602 -0.0342,-22.347605 -0.27841,-0.373488 c -0.15313,-0.20542 -0.48055,-0.492554 -0.7276,-0.638075 -0.44608,-0.262742 -0.70189,-0.100081 -39.0949,-0.216077 l -38.71185,0.04851 0.0331,-1.817907 v -1.652543 h 38.64225 c 35.37899,0 38.68046,-0.01812 39.0948,-0.214746 0.24889,-0.11811 0.58531,-0.400884 0.74759,-0.628386 l 0.29505,-0.413639 0.0345,-18.169617 0.0345,-18.16962 -0.28157,-0.500983 c -0.15499,-0.275546 -0.50602,-0.6270688 -0.7802,-0.7811674 L 179.8145,9.1026767 H 95.250002 10.685507 L 10.186996,9.3828546 C 9.9128155,9.5369532 9.5624056,9.8873647 9.4083072,10.161544 l -0.2801786,0.49851 v 18.01981 c 0,19.945715 -0.060101,18.575668 0.8431329,19.219949 l 0.4136375,0.29505 14.849739,0.03476 15.411006,-0.02371 -0.05846,1.672564 -0.01169,1.801183 -15.208556,-0.08107 C 10.791427,51.52089 10.645034,51.63707 10.186918,51.90619 9.9325047,52.055642 9.5902,52.376987 9.4262417,52.620284 L 9.1281386,53.062638 V 75.334218 97.6058 H 7.6729203 6.2177119 Z"
     id="path41" /><path
     style="fill:#eba0ac;fill-opacity:1;stroke:none;stroke-width:2.64583;stroke-dasharray:none;stroke-opacity:1"
     d="M 13.22917,28.747989 V 13.402156 H 95.250002 177.27083 V 28.747989 44.093822 H 95.250002 13.22917 Z m 8.97663,10.679943 c 0.518329,-0.65895 0.54837,-1.027396 0.54837,-6.725851 v -6.028714 l 0.793422,-0.174265 c 0.970658,-0.213194 1.590635,-1.041231 1.579414,-2.109465 -0.01072,-1.019717 -0.531045,-1.705094 -1.487773,-1.959681 -0.718116,-0.19109 -0.755999,-0.278654 -0.822913,-1.902077 -0.03858,-0.935971 -0.203321,-1.961806 -0.366098,-2.279631 -0.38318,-0.748157 -1.541008,-1.220203 -2.439673,-0.994653 -1.104188,0.277135 -1.489713,1.07061 -1.489713,3.066078 v 1.772696 l -0.928073,0.306289 c -1.079318,0.356209 -1.453176,0.925208 -1.453176,2.211692 0,1.003501 0.950404,2.020972 1.887765,2.020972 0.467402,0 0.493484,0.324242 0.493484,6.13451 0,5.934297 0.01879,6.154494 0.575287,6.746875 0.834665,0.888458 2.377209,0.846407 3.109677,-0.08478 z m 12.636005,0.121854 c 0.57586,-0.540994 0.612365,-0.769694 0.612365,-3.836459 0,-3.006185 0.03858,-3.261172 0.493485,-3.261172 0.271417,0 0.807198,-0.246766 1.190625,-0.54837 1.380021,-1.085524 0.658624,-3.684963 -1.022652,-3.684963 H 35.45417 v -4.74086 c 0,-2.607474 -0.07396,-4.933595 -0.164354,-5.169162 -0.240409,-0.626491 -1.643682,-1.270899 -2.370363,-1.088514 -0.344101,0.08636 -0.867058,0.416161 -1.162126,0.73288 -0.498436,0.535003 -0.536491,0.91953 -0.536491,5.420754 v 4.844902 h -0.651152 c -2.173748,0 -2.299579,3.627289 -0.14227,4.101113 l 0.793422,0.174265 v 3.118297 c 0,2.754064 0.06405,3.199726 0.54837,3.815435 0.710018,0.902639 2.179458,0.960914 3.072599,0.121854 z m 12.783198,0.04612 c 0.49389,-0.49389 0.529166,-0.881943 0.529166,-5.820833 v -5.291667 h 0.611569 c 0.745921,0 1.707443,-0.850521 1.920301,-1.698617 0.182385,-0.72668 -0.462024,-2.129954 -1.088515,-2.370362 -0.235566,-0.0904 -0.656687,-0.164354 -0.935828,-0.164354 -0.469241,0 -0.507527,-0.217337 -0.507527,-2.881106 0,-3.246644 -0.265517,-3.868886 -1.775338,-4.160509 -0.710779,-0.137287 -0.980479,-0.03285 -1.653646,0.64031 -0.794681,0.794681 -0.804349,0.837991 -0.804349,3.602828 0,2.642817 -0.0301,2.798477 -0.541192,2.798477 -0.82655,0 -1.840058,1.165863 -1.840058,2.116667 0,0.950801 1.013508,2.116666 1.840058,2.116666 0.526741,0 0.541192,0.138084 0.541192,5.171401 0,5.137845 0.0042,5.175617 0.649433,5.820833 0.822793,0.822796 2.294271,0.880729 3.054734,0.120266 z m 12.291271,0.364813 c 0.783736,-0.300749 1.202479,-1.574916 1.202479,-3.658965 0,-1.78208 0.05391,-1.997514 0.499856,-1.997514 0.986644,0 1.737077,-0.914419 1.737077,-2.116667 0,-1.19584 -0.749462,-2.116667 -1.722758,-2.116667 -0.453816,0 -0.490789,-0.379783 -0.565999,-5.814033 -0.07759,-5.605814 -0.101577,-5.835124 -0.669901,-6.402917 -0.792975,-0.792236 -2.261492,-0.792236 -3.054467,0 -0.568325,0.567793 -0.592315,0.797103 -0.669901,6.402917 -0.07521,5.43425 -0.112183,5.814033 -0.565999,5.814033 -0.973297,0 -1.722758,0.920827 -1.722758,2.116667 0,1.202248 0.750432,2.116667 1.737077,2.116667 0.445947,0 0.499856,0.215434 0.499856,1.997514 0,1.997874 0.41947,3.364817 1.118912,3.646236 0.488008,0.196347 1.679858,0.203319 2.176526,0.01273 z M 73.169319,39.47564 c 0.635556,-0.635553 0.649433,-0.740148 0.649433,-4.894792 V 30.33549 h 0.642255 c 0.814343,0 1.738995,-1.14444 1.738995,-2.152349 0,-0.871609 -0.743939,-1.727411 -1.71306,-1.970645 l -0.66819,-0.167707 v -3.695834 -3.695838 l -0.804349,-0.804349 c -0.673166,-0.673164 -0.942866,-0.777597 -1.653646,-0.64031 -1.593863,0.307856 -1.775338,0.827801 -1.775338,5.086551 0,3.594359 -0.02875,3.807147 -0.514413,3.807147 -0.282927,0 -0.842521,0.282226 -1.243542,0.627171 -1.423649,1.224571 -0.680141,3.606163 1.125807,3.606163 h 0.632148 v 4.365625 c 0,4.012848 0.04276,4.408387 0.529167,4.894791 0.760463,0.760463 2.23194,0.70253 3.054733,-0.120266 z m 12.801063,-0.04771 c 0.523865,-0.665986 0.54837,-1.014799 0.54837,-7.805208 v -7.108069 h 0.57826 c 0.908357,0 1.80299,-1.013486 1.80299,-2.042522 0,-1.025552 -0.978696,-2.190811 -1.840058,-2.190811 -0.436247,0 -0.541192,-0.169899 -0.541192,-0.876152 0,-1.65871 -1.656707,-2.687113 -3.114439,-1.933289 -0.877568,0.453805 -1.118894,0.893225 -1.118894,2.037331 0,0.577112 -0.124632,0.77211 -0.493485,0.77211 -0.271417,0 -0.807199,0.246766 -1.190625,0.54837 -1.380022,1.085525 -0.658625,3.684963 1.022652,3.684963 h 0.661458 v 7.192844 c 0,7.020912 0.01376,7.20748 0.575286,7.805208 0.834665,0.888458 2.37721,0.846407 3.109677,-0.08478 z m 12.636005,0.121854 c 0.473345,-0.444686 0.612365,-0.860491 0.612365,-1.831565 0,-1.201666 0.04034,-1.269593 0.928078,-1.562568 1.0745,-0.354619 1.45317,-0.92527 1.45317,-2.189888 0,-1.009787 -0.54475,-1.641806 -1.653644,-1.918554 l -0.727604,-0.181587 v -6.659319 c 0,-7.315671 -0.0626,-7.632766 -1.57231,-7.964353 -0.823164,-0.180798 -1.775627,0.188302 -2.32188,0.899777 -0.233162,0.303686 -0.324641,2.261891 -0.330729,7.079509 l -0.0084,6.659708 -0.793422,0.174265 c -0.952426,0.209187 -1.587828,1.033825 -1.587828,2.060712 0,1.114494 0.415091,1.697131 1.453176,2.039732 0.869114,0.286832 0.928074,0.378359 0.928074,1.440714 0,1.572511 0.776189,2.528705 2.052672,2.528705 0.617331,0 1.172837,-0.203772 1.568296,-0.575286 z m 48.747323,-0.121852 c 0.53313,-0.677762 0.54837,-0.979279 0.54837,-10.847917 0,-9.754412 -0.0204,-10.171176 -0.52243,-10.673212 -0.28734,-0.28734 -0.79336,-0.588809 -1.12448,-0.66993 -0.33112,-0.08112 -9.39345,-0.113914 -20.13851,-0.07287 l -19.53647,0.07461 -0.50572,0.624623 c -0.47837,0.590844 -0.50572,1.176626 -0.50572,10.830864 0,10.114838 0.005,10.211723 0.57529,10.818606 l 0.57529,0.612365 h 20.043 20.04301 z m 10.80587,0.287636 c 2.52897,-1.056671 3.89216,-3.887512 3.19853,-6.64216 -0.43735,-1.736858 -2.27694,-3.583419 -4.00284,-4.018008 -2.37242,-0.597381 -4.71765,0.280826 -6.13489,2.297314 -0.73056,1.039458 -0.80475,1.335971 -0.80475,3.216108 0,1.87438 0.0754,2.178116 0.79375,3.19804 1.50006,2.129771 4.50224,2.971527 6.9502,1.948706 z m 11.9119,-0.09543 c 2.96449,-1.52486 4.01196,-4.702363 2.5303,-7.675661 -1.75567,-3.523178 -6.34986,-4.153381 -9.0358,-1.239477 -2.07024,2.245942 -2.16771,5.288645 -0.23975,7.484464 1.63476,1.861897 4.65962,2.503472 6.74525,1.430674 z M 159.07304,27.534165 c 2.92191,-2.05359 3.30294,-6.081728 0.81619,-8.628393 -2.78569,-2.852809 -7.67118,-1.948963 -9.19639,1.701392 -0.85952,2.057128 -0.31611,4.812922 1.24437,6.310474 1.85626,1.781413 5.08187,2.060104 7.13583,0.616527 z m 10.92402,0.455798 c 4.8078,-2.184138 4.14403,-9.253218 -0.99888,-10.638063 -4.05138,-1.090919 -7.95843,2.923636 -6.81611,7.00364 0.92694,3.310673 4.68278,5.057357 7.81499,3.634423 z"
     id="path42" /><path
     style="fill:#313244;fill-opacity:1;stroke:#313244;stroke-width:2.64583;stroke-dasharray:none;stroke-opacity:1"
     d="m 109.80209,28.747989 v -7.14375 h 16.93333 16.93333 v 7.14375 7.14375 h -16.93333 -16.93333 z"
     id="path43" /><path
     style="fill:#eba0ac;fill-opacity:1;stroke:none;stroke-width:2.64583;stroke-dasharray:none;stroke-opacity:1"
     d="m 154.90629,23.712894 c -0.38449,-0.424855 -0.43353,-0.687644 -0.23457,-1.256771 0.461,-1.318673 2.49078,-1.031629 2.49078,0.35224 0,1.312463 -1.38466,1.867585 -2.25621,0.904531 z"
     id="path44" /><path
     style="fill:#eba0ac;fill-opacity:1;stroke:none;stroke-width:2.64583;stroke-dasharray:none;stroke-opacity:1"
     d="m 166.70377,23.737175 c -0.65413,-0.65413 -0.66548,-0.785469 -0.13356,-1.544897 0.5166,-0.73755 1.47084,-0.755928 2.11803,-0.04079 0.45216,0.499626 0.46071,0.608992 0.0983,1.256771 -0.5013,0.89607 -1.37729,1.034407 -2.08278,0.328917 z"
     id="path45" /><path
     style="fill:#eba0ac;fill-opacity:1;stroke:none;stroke-width:2.64583;stroke-dasharray:none;stroke-opacity:1"
     d="m 166.54135,35.246256 c -0.41192,-0.628661 -0.41267,-0.725056 -0.0105,-1.338892 0.53188,-0.811755 1.48064,-0.861984 2.15736,-0.11421 0.45198,0.49943 0.46061,0.609242 0.0988,1.25677 -0.55495,0.993191 -1.66026,1.089824 -2.2457,0.196332 z"
     id="path46" /><path
     style="fill:#eba0ac;fill-opacity:1;stroke:none;stroke-width:2.64583;stroke-dasharray:none;stroke-opacity:1"
     d="m 154.92319,35.373232 c -0.65306,-0.721625 -0.35329,-1.799616 0.5645,-2.029965 0.92027,-0.230974 1.52182,0.177188 1.63136,1.106903 0.15407,1.30756 -1.29618,1.917194 -2.19586,0.923062 z"
     id="path47" /></svg>
