<?xml version="1.0" encoding="UTF-8" standalone="no"?>
<!-- Created with Inkscape (http://www.inkscape.org/) -->

<svg
   width="192.74789mm"
   height="193.14586mm"
   viewBox="0 0 192.74789 193.14586"
   version="1.1"
   id="svg1"
   xml:space="preserve"
   xmlns="http://www.w3.org/2000/svg"
   xmlns:svg="http://www.w3.org/2000/svg"><defs
     id="defs1"><style
       id="style1">.cls-1{fill:#dabc45;}.cls-2{fill:#7bb677;}</style></defs><g
     id="g8"
     transform="translate(-8.9343663,-76.200008)"><g
       style="fill:#000000"
       id="g7"
       transform="matrix(0.41785846,0,0,0.41785846,10.054062,77.522916)"><g
         id="g5">
	<path
   d="m 432.458,330.806 c 8.794,0 15.926,-7.132 15.926,-15.926 0,-8.794 -7.132,-15.926 -15.926,-15.926 H 331.599 V 155.62 h 100.859 c 8.794,0 15.926,-7.132 15.926,-15.926 0,-8.794 -7.132,-15.926 -15.926,-15.926 H 331.599 V 22.909 c 0,-8.796 -7.132,-15.926 -15.926,-15.926 -8.796,0 -15.926,7.13 -15.926,15.926 V 123.768 H 156.414 V 22.902 c 0,-8.794 -7.132,-15.926 -15.926,-15.926 -8.796,0 -15.926,7.132 -15.926,15.926 V 123.769 H 23.695 c -8.794,0 -15.926,7.132 -15.926,15.926 0,8.794 7.132,15.926 15.926,15.926 H 124.562 V 298.954 H 23.695 c -8.794,0 -15.926,7.132 -15.926,15.926 0,8.794 7.132,15.926 15.926,15.926 h 100.867 v 100.859 c 0,8.796 7.13,15.926 15.926,15.926 8.794,0 15.926,-7.13 15.926,-15.926 V 330.806 h 143.333 v 100.867 c 0,8.794 7.13,15.926 15.926,15.926 8.794,0 15.926,-7.132 15.926,-15.926 V 330.806 Z M 156.414,298.954 V 155.62 H 299.747 V 298.953 H 156.414 Z"
   id="path1"
   style="fill:#11111b;fill-opacity:1" />
	<path
   d="m 27.652,106.497 25.235,-25.241 25.235,25.241 c 3.11,3.11 7.184,4.666 11.26,4.666 4.075,0 8.149,-1.556 11.26,-4.666 6.222,-6.213 6.222,-16.299 0,-22.519 L 75.408,58.735 100.641,33.492 c 6.222,-6.221 6.222,-16.306 0,-22.519 -6.221,-6.221 -16.299,-6.221 -22.519,0 L 52.887,36.214 27.652,10.973 c -6.221,-6.221 -16.299,-6.221 -22.519,0 -6.222,6.213 -6.222,16.299 0,22.519 L 30.366,58.735 5.133,83.977 c -6.222,6.221 -6.222,16.307 0,22.519 3.11,3.11 7.184,4.666 11.26,4.666 4.075,10e-4 8.149,-1.555 11.259,-4.665 z"
   id="path2"
   style="fill:#eba0ac;fill-opacity:1;stroke:#11111b;stroke-width:6.33189;stroke-dasharray:none;stroke-opacity:1" />
	<path
   d="m 250.596,227.287 25.235,-25.243 c 6.221,-6.221 6.221,-16.307 0,-22.519 -6.222,-6.222 -16.3,-6.222 -22.521,0 l -25.235,25.241 -25.235,-25.241 c -6.221,-6.222 -16.299,-6.222 -22.519,0 -6.221,6.213 -6.221,16.299 0,22.519 l 25.235,25.243 -25.235,25.243 c -6.221,6.221 -6.221,16.307 0,22.519 3.11,3.11 7.186,4.666 11.26,4.666 4.075,0 8.149,-1.556 11.26,-4.666 l 25.235,-25.241 25.235,25.241 c 3.11,3.11 7.186,4.666 11.26,4.666 4.076,0 8.149,-1.556 11.261,-4.666 6.221,-6.213 6.221,-16.299 0,-22.519 z"
   id="path3"
   style="fill:#eba0ac;fill-opacity:1;stroke:#11111b;stroke-width:6.33189;stroke-dasharray:none;stroke-opacity:1" />
	<path
   d="m 228.072,117.47 c 32.389,0 58.735,-26.346 58.735,-58.735 C 286.807,26.346 260.461,0 228.072,0 c -32.389,0 -58.735,26.346 -58.735,58.735 0,32.388 26.347,58.735 58.735,58.735 z m 0,-85.618 c 14.822,0 26.883,12.061 26.883,26.883 0,14.822 -12.061,26.883 -26.883,26.883 -14.822,0 -26.883,-12.061 -26.883,-26.883 0,-14.822 12.061,-26.883 26.883,-26.883 z"
   id="path4"
   style="fill:#74c7ec;fill-opacity:1;stroke:#11111b;stroke-width:6.33189;stroke-dasharray:none;stroke-opacity:1" />
	<path
   d="m 396.695,338.426 c -32.389,0 -58.735,26.346 -58.735,58.735 0,32.389 26.346,58.735 58.735,58.735 32.388,0 58.735,-26.346 58.735,-58.735 0,-32.389 -26.347,-58.735 -58.735,-58.735 z m 0,85.618 c -14.822,0 -26.883,-12.061 -26.883,-26.883 0,-14.822 12.061,-26.883 26.883,-26.883 14.822,0 26.883,12.061 26.883,26.883 0,14.822 -12.061,26.883 -26.883,26.883 z"
   id="path5"
   style="fill:#74c7ec;fill-opacity:1;stroke:#11111b;stroke-width:6.33189;stroke-dasharray:none;stroke-opacity:1" />
</g></g></g></svg>
