<?xml version="1.0" encoding="UTF-8" standalone="no"?>
<!-- Created with Inkscape (http://www.inkscape.org/) -->

<svg
   width="50.799999mm"
   height="50.799999mm"
   viewBox="0 0 50.799999 50.799999"
   version="1.1"
   id="svg1"
   xml:space="preserve"
   xmlns="http://www.w3.org/2000/svg"
   xmlns:svg="http://www.w3.org/2000/svg"><defs
     id="defs1"><style
       id="style1">.cls-1{fill:#dabc45;}.cls-2{fill:#7bb677;}</style></defs><g
     id="layer1"
     transform="translate(-79.639582,-123.03126)"><g
       id="g1"
       transform="matrix(0.26458333,0,0,0.26458333,79.639584,123.03125)"><path
         d="M 172.94,0 H 19.06 C 8.5380222,0.01102356 0.01102356,8.5380222 0,19.06 v 153.88 c 0.01102356,10.52198 8.5380222,19.04898 19.06,19.06 h 153.88 c 10.52198,-0.011 19.04898,-8.53802 19.06,-19.06 V 19.06 C 191.98898,8.5380222 183.46198,0.01102356 172.94,0 Z m 8.95,19.06 V 60.63 H 131.37 V 10.11 h 41.57 c 4.93159,0.02732 8.92268,4.018413 8.95,8.95 z M 70.74,121.26 V 70.74 h 50.52 v 50.52 z m 50.52,10.11 v 50.52 H 70.74 V 131.37 Z M 60.63,121.26 H 10.11 V 70.74 H 60.63 Z M 70.74,60.63 V 10.11 h 50.52 v 50.52 z m 60.63,10.11 h 50.52 v 50.52 H 131.37 Z M 19.06,10.11 H 60.63 V 60.63 H 10.11 V 19.06 c 0.02732,-4.931587 4.018413,-8.922678 8.95,-8.95 z m -8.95,162.83 v -41.57 h 50.52 v 50.52 H 19.06 c -4.931587,-0.0273 -8.922678,-4.01841 -8.95,-8.95 z m 162.83,8.95 h -41.57 v -50.52 h 50.52 v 41.57 c -0.0273,4.93159 -4.01841,8.92268 -8.95,8.95 z"
         id="path1"
         style="fill:#11111b;fill-opacity:1" /><rect
         class="cls-1"
         x="70.739998"
         y="70.739998"
         width="50.52"
         height="50.52"
         id="rect1"
         style="fill:#f9e2af;fill-opacity:1" /><rect
         class="cls-2"
         x="131.37"
         y="70.739998"
         width="50.52"
         height="50.52"
         id="rect2"
         style="fill:#a6e3a1;fill-opacity:1" /><rect
         class="cls-2"
         x="70.739998"
         y="131.37"
         width="50.52"
         height="50.52"
         id="rect3"
         style="fill:#a6e3a1;fill-opacity:1" /><path
         class="cls-2"
         d="m 10.11,172.94 v -41.57 h 50.52 v 50.52 H 19.06 a 9,9 0 0 1 -8.95,-8.95 z"
         id="path3"
         style="fill:#a6e3a1;fill-opacity:1" /><path
         class="cls-2"
         d="m 172.94,181.89 h -41.57 v -50.52 h 50.52 v 41.57 c -0.0273,4.93159 -4.01841,8.92268 -8.95,8.95 z"
         id="path4"
         style="fill:#a6e3a1;fill-opacity:1" /><rect
         class="cls-1"
         x="70.739998"
         y="10.11346"
         width="50.52"
         height="50.52"
         id="rect4"
         style="fill:#e6e9ef;fill-opacity:1" /><rect
         class="cls-1"
         x="10.11346"
         y="70.506821"
         width="50.52"
         height="50.52"
         id="rect5"
         style="fill:#e6e9ef;fill-opacity:1" /></g></g><path
     class="cls-2"
     d="M 5.0561007,2.6723976 H 16.05483 V 16.039087 H 2.6880807 V 5.0404076 a 2.38125,2.38125 0 0 1 2.36802,-2.36801 z"
     id="path3-7"
     style="fill:#e6e9ef;fill-opacity:1;stroke-width:0.264583" /><path
     class="cls-2"
     d="M 48.122428,5.0404376 V 16.039227 H 34.755738 V 2.6723976 h 10.99868 a 2.38125,2.38125 0 0 1 2.36801,2.36804 z"
     id="path5"
     style="fill:#e6e9ef;fill-opacity:1;stroke-width:0.264583" /></svg>
